# xmcd
#
# Track frame offsets:
#	150
#	15265
#	37970
#	51035
#	72826
#	89411
#	109094
#	125683
#	148821
#	162615
#	176258
#	190403
#	206960
#	219592
#	240207
#	256097
#	269103
#	288129
#	304275
#	322502
#
# Disc length: 4439
#
# Revision: 1
# Processed by: cddbd v1.5.1PL0 Copyright (c) Steve Scherf et al.
# Submitted via: jack 2.99.7
# Normalized: r0:DSETVAR1
#
DISCID=20115514
DTITLE=Various Artist - That's Country!
DYEAR=1900
DGENRE=
TTITLE0=Jo Dee Messina - That's the Way
TTITLE1=LeAnn Rimes - How Do I Live
TTITLE2=Hank Williams III - If the Shoe Fits
TTITLE3=Tim McGraw - Please Remember Me
TTITLE4=Jill Johnson - What's Wrong with You
TTITLE5=Chip Taylor - It Don't Get Better Than This (The J-Z Zoom Song)
TTITLE6=Sherrie Austin - In the Meantime
TTITLE7=Willie Nelson - Me and My Drummer
TTITLE8=Rhonda Vincent - Drivin' Nails in My Coffin
TTITLE9=Trent Summmar and The New Row Mob - I'm Country
TTITLE10=Hal Ketchum - (She's Something) You're Everything
TTITLE11=Emmylou Harris feat. Dave Matthews - My Antonia
TTITLE12=Dale Watson - Hey Driver
TTITLE13=David Hall - Riding with Private Malone
TTITLE14=Steve Holy - Good Morning Beautiful
TTITLE15=Anders Silver - She's Every Woman
TTITLE16=Belle - Richest Folks in Town
TTITLE17=Junior Brown - A Long Walk Back to San Antone
TTITLE18=Henning Kvitnes - Deeper
TTITLE19=Heidi Hauge - I'm Gonna Be a Country Girl Again
EXTD=
EXTT0=
EXTT1=
EXTT2=
EXTT3=
EXTT4=
EXTT5=
EXTT6=
EXTT7=
EXTT8=
EXTT9=
EXTT10=
EXTT11=
EXTT12=
EXTT13=
EXTT14=
EXTT15=
EXTT16=
EXTT17=
EXTT18=
EXTT19=
PLAYORDER=
